<?xml version="1.0" encoding="UTF-8"?>
<svg id="Layer_2" data-name="Layer 2" xmlns="http://www.w3.org/2000/svg" viewBox="0 0 754.5 534.78">
  <defs>
    <style>
      .cls-1 {
        fill: #fff;
        opacity: .8;
      }

      .cls-2 {
        opacity: .6;
      }

      .cls-2, .cls-3 {
        fill: #6e6253;
      }
    </style>
  </defs>
  <g id="Layer_1-2" data-name="Layer 1">
    <polygon class="cls-2" points="295.3 44.26 307.17 38.24 324.52 31.11 340.23 25.82 366.16 20.15 380.77 17.96 395.93 17.05 408.53 16.32 422.23 16.32 439.4 17.78 460.22 21.43 476.84 25.82 496.39 32.76 506.98 38.42 521.59 45.54 533.46 52.12 543.69 58.33 560.86 69.1 571.82 77.69 587.16 90.65 598.85 102.16 606.88 112.75 613.09 122.62 618.39 133.03 623.14 142.34 630.81 158.05 636.11 170.47 643.6 192.57 646.7 207.91 649.99 225.63 651.45 234.94 652.18 249.92 652.18 268.55 651.27 283.16 649.44 296.13 646.7 310.92 643.6 323.71 639.03 338.5 634.28 350.55 627.89 365.53 622.04 376.12 614.19 390.19 607.8 399.14 599.76 409.37 590.26 420.69 575.84 434.94 563.6 446.08 552.46 454.66 543.51 461.05 530.91 468.91 517.94 474.57 506.8 477.67 490.91 483.15 477.03 486.62 463.33 489.73 445.43 493.38 429.36 495.76 416.39 497.4 405.25 498.31 394.76 499.41 373.65 499.96 358.31 499.96 345.16 498.13 329.63 495.76 319.04 493.02 307.53 489.36 296.21 484.98 285.62 480.41 274.29 474.2 265.71 468.72 256.03 462.15 250.37 457.22 252.01 463.61 240.14 455.03 230.09 445.71 218.95 432.74 222.51 433.11 216.12 422.15 207.9 410.83 190 385.07 182.15 371.19 176.12 358.77 172.65 346.54 171.37 336.67 171.19 329.92 176.12 328.46 178.86 326.81 177.4 323.89 172.83 317.31 165.16 305.08 160.78 293.02 158.59 286.08 157.13 280.42 156.58 277.5 153.47 283.16 151.28 284.26 146.35 280.42 148.36 279.14 147.45 273.48 145.62 266.72 147.26 263.62 151.1 264.17 155.85 267.82 156.94 257.41 158.95 238.96 162.79 219.78 168.09 202.25 176.3 177.78 184.71 160.24 196.03 140.15 205.71 125.36 214.84 112.94 227.63 99.24 240.41 85.91 253.38 73.67 263.79 64.72 277.12 55.77 295.3 44.26"/>
    <polygon class="cls-1" points="193.78 210.73 202.1 190.28 207.81 176.25 220.18 154.84 227.79 143.19 236.59 132.01 245.62 122.26 257.04 112.51 267.27 104.42 279.16 94.91 295.33 84.21 307.93 75.65 322.68 69.46 332.67 65.9 347.41 62.57 360.49 59.95 367.87 59.71 375 57.81 385.23 54.01 395.69 50.44 403.78 48.54 409.48 47.59 418.05 47.11 424.94 47.35 430.65 49.73 436.36 53.29 439.21 55.2 448.01 57.34 455.38 58.76 467.27 61.85 491.29 69.23 503.9 74.22 516.03 79.69 527.92 84.92 532.91 87.3 538.15 92.06 543.85 96.58 550.75 103 558.12 109.18 564.78 115.13 571.68 122.26 577.86 128.92 586.19 139.62 593.32 151.04 598.31 162.69 603.78 175.77 607.59 187.9 609.02 197.65 609.84 200.91 611.2 207.72 611.2 214.33 611.2 223.47 611.2 230.27 609.84 237.86 609.84 243.11 611.2 253.8 611.2 260.8 613.92 272.86 615.67 286.27 615.67 294.83 619.17 279.47 620.92 265.66 622.28 249.52 622.28 237.66 622.28 225.22 621.31 212.58 620.14 199.16 617.61 182.83 614.28 170.34 611.15 162.8 612.55 164.42 614.06 167.86 617.61 177.12 620.31 185.95 622.57 197.37 623.86 205.77 624.4 214.38 626.34 214.92 629.57 216.11 628.6 209.86 626.98 202.43 624.94 193.81 623.54 187.25 620.52 175.83 617.07 166.14 608.04 147.11 594.4 127.45 589.33 121.9 580.45 112.7 574.74 104.77 563.48 94.47 554.6 86.86 547.78 80.67 554.92 84.16 565.7 91.3 574.74 97.96 583.14 105.25 593.13 114.61 600.11 123.17 610.1 136.49 616.12 148.22 620.88 158.21 625.48 170.58 629.28 181.36 631.98 189.77 635.15 198.49 638.32 209.11 639.91 218.31 641.81 227.66 643.71 238.92 644.51 247.8 644.98 259.53 644.35 276.02 640.38 301.08 636.1 316.78 626.91 340.88 616.12 361.77 601.36 385.12 592.48 396.19 588.27 401.65 584.72 405.77 580.51 410.94 574.09 416.78 564.7 426.84 557.32 434.12 547.55 441.88 536.34 450.22 526.76 456.64 516.89 462.77 499.46 470.82 490.74 473.88 479.53 477.04 467.74 478.58 457.78 479.15 448.1 478.67 456.33 477.04 463.52 476.22 468.46 475.13 474.34 474.03 480.64 472.59 488.31 471.02 496.12 468.76 504.41 465.75 511.25 462.39 516.05 459.79 521.8 456.5 528.51 452.94 534.54 448.9 541.25 444.31 547.48 439.59 553.78 434.86 560.69 428.63 568.36 421.17 574.46 414.66 580.35 408.57 585.55 402.34 590.34 396.51 595.75 389.53 597.67 386.86 602.74 379.12 606.44 372.48 613.22 359.33 618.35 347.49 622.73 335.78 626.09 325.71 628.49 316.53 630.47 307.7 632.6 296.54 633.9 285.17 634.51 280.17 634.65 273.67 635.06 261.34 635.06 254.97 634.72 248.47 633.97 246.96 633.42 249.15 632.66 254.36 631.71 264.35 629.79 275.52 627.87 285.24 626.64 292.16 624.45 300.24 622.12 309.62 616.03 330.74 610.06 346.47 601.75 365.82 597.59 373.23 589.81 387.16 578.78 402.89 571.73 411.21 563.05 419.88 552.38 430.55 540.45 439.77 529.24 447.01 515.68 454.42 503.38 460.03 493.44 463.28 475.36 469.61 461.98 474.31 452.94 475.76 444.58 478.25 436.55 477.67 418.66 474.98 409.42 473.07 402.97 470.98 410.47 468.71 398.62 468.89 392.52 467.14 369.7 458.95 356.11 452.16 341.47 445.36 333.81 441.71 326.49 437.7 318.65 433.52 310.98 429.68 299.31 423.76 293.73 420.62 300.35 428.12 294.6 426.55 283.63 420.28 272.65 412.78 260.11 403.03 264.98 409.65 265.16 412.61 250.52 394.14 240.94 381.25 228.22 362.78 213.93 336.65 208.53 323.75 205.75 311.73 212.02 319.92 211.15 315.74 198.25 300.75 193.38 294.48 188.5 287.69 183.97 278.28 183.44 271.66 184.14 256.85 185.71 244.13 187.97 231.41 191.63 217.12 193.78 210.73"/>
    <path class="cls-2" d="M415.38,504.47c1.01-.68,4.28-2.81,8.92-2.75,4.21.06,7.15,1.9,8.46,2.75,1.33.86,4.23,2.98,6.18,6.86,1.86,3.72,1.85,7.03,1.83,7.78-.08,3.84-1.52,6.54-1.83,7.09-1.45,2.61-3.32,4.07-4.58,5.03-1.03.79-3.26,2.49-6.29,3.2-6.24,1.47-11.67-2.24-12.7-2.97-.88-.63-7.8-5.77-7.32-14.41.43-7.79,6.53-12.05,7.32-12.58Z"/>
    <path class="cls-2" d="M386,509.01c.57-.27,1.91-.81,3.57-.53,1.98.34,3.15,1.63,3.57,2.1.38.44,1.74,2.02,1.68,4.41-.01.56-.15,2.85-2,4.41-2.54,2.14-5.97.9-6.41.74-.45-.17-3.4-1.3-4.1-4.2-.71-2.96,1.4-5.83,3.68-6.93Z"/>
    <polygon class="cls-2" points="159.14 290.35 157.85 288.76 156.76 287.02 155.36 285.78 154.94 285.78 155.43 287.25 154.34 286.65 152.75 285.78 152.75 286.68 153.73 287.82 154.94 289.18 155.94 290.61 156.34 291.56 156.27 292.24 154.98 291.41 153.96 290.2 152.75 288.88 151.66 288.61 150.49 288.01 149.28 287.44 149.77 288.57 150.79 289.9 151.81 290.58 153.39 291.71 154.75 292.69 155.36 293.6 156.64 293.79 157.66 293.6 158.19 293.11 158.83 292.05 159.36 291.26 159.14 290.35"/>
    <polygon class="cls-2" points="155.5 244.63 154.52 244.63 153.67 244.1 152.77 243.61 152.77 244.63 153.51 245.32 154.81 245.69 155.87 245.69 155.5 244.63"/>
    <polygon class="cls-2" points="133.74 233.3 132.35 232.51 133.26 231.38 134.75 230.07 135.36 228.8 133.48 227.45 131.78 226.75 129.16 225.96 129.16 226.75 130.25 228.06 131.47 229.33 131.6 230.33 131.21 231.33 131.12 232.34 131.69 232.95 133.74 233.3"/>
    <polygon class="cls-2" points="127.94 243.91 125.67 242.33 123.27 240.76 122 240.33 122.74 241.51 124.49 242.86 126.41 243.91 127.94 244.65 128.64 244.65 127.94 243.91"/>
    <polygon class="cls-2" points="275.62 41.63 274.43 40.99 274.43 42.37 275.62 41.63"/>
    <polygon class="cls-2" points="295.1 18.66 294.37 15.35 292.07 13.24 289.77 11.86 286.56 11.86 284.17 13.33 282.7 16.18 282.7 19.12 283.98 21.42 285.55 22.71 287.57 23.62 289.59 24.18 291.61 23.62 292.9 22.8 294.27 21.23 295.1 18.66"/>
    <polygon class="cls-2" points="316.05 22.71 317.06 23.62 316.56 24.54 315.32 24.54 314.86 23.62 316.05 22.71"/>
    <polygon class="cls-2" points="310.86 17.2 312.84 17.77 312.84 18.99 312.84 20.16 311.85 20.53 310.53 20.08 309.64 19.47 309.64 18.3 310.86 17.2"/>
    <polygon class="cls-2" points="330.76 13.23 331.69 13.63 332.26 14.81 331.86 16.15 330.4 16.47 329.1 15.95 329.1 14.85 329.83 13.72 330.76 13.23"/>
    <polygon class="cls-2" points="383.58 13.09 385.19 13.09 386.19 12.19 385.54 11.33 384.89 10.68 383.98 11.13 383.58 11.89 383.58 13.09"/>
    <polygon class="cls-2" points="401.59 1.65 402.79 1.2 402.19 0 400.93 0 400.68 1.05 401.59 1.65"/>
    <polygon class="cls-2" points="422.65 3.16 423.65 4.56 423.65 5.67 422.2 5.67 420.74 5.67 420.74 4.06 421.29 3.16 422.2 3.16 422.65 3.16"/>
    <polygon class="cls-2" points="434.99 5.67 436.49 6.52 437.99 6.52 438.55 7.72 438.55 8.63 436.77 8.63 436.04 8.07 434.99 8.12 434.08 7.15 434.08 6.12 434.99 5.67"/>
    <polygon class="cls-2" points="470.19 18.96 470.59 20.71 469.39 21.41 467.63 20.71 467.63 18.96 468.69 18.1 469.94 18.46 470.19 18.96"/>
    <polygon class="cls-2" points="476.71 9.58 476.71 7.82 477.76 7.22 478.36 5.87 478.36 4.66 476.71 5.01 475.61 5.42 475.61 6.57 474.95 6.87 474.95 8.27 475.56 9.03 476.71 9.58"/>
    <polygon class="cls-2" points="520.6 25.33 521.53 26.45 520.6 27.31 518.86 27.31 517.52 25.9 518.54 24.56 519.96 24.56 520.6 25.33"/>
    <polygon class="cls-2" points="468.01 453.73 480.89 451.39 496.82 445.07 517.66 435 534.76 423.52 548.34 412.99 559.82 403.15 567.54 395.66 556.54 400.11 538.97 406.19 525.86 413.69 510.17 424.69 496.12 435.47 482.07 445.54 468.01 453.73"/>
    <polygon class="cls-2" points="507.83 400.81 505.25 396.83 501.03 395.66 496.82 398.23 495.65 402.21 497.29 405.49 500.57 407.37 504.31 407.37 507.83 405.02 507.83 400.81"/>
    <polygon class="cls-2" points="447.75 434.4 449.01 432.25 451.78 429.83 453.76 427.68 454.83 428.58 454.83 431.04 453.94 433.15 451.78 435.12 449.18 437.18 447.75 437.18 447.75 434.4"/>
    <polygon class="cls-2" points="451.29 444.54 449.63 442.74 448.56 441.04 447.3 442.02 447.75 443.73 449.3 445.16 451.29 446.87 452.32 447.49 452.32 445.07 451.29 444.54"/>
    <polygon class="cls-2" points="435.2 441.67 437.35 440.59 438.87 438.98 438.87 437.18 436.63 437.18 434.21 437.81 431.34 440.5 429.1 442.65 429.1 445.16 431.61 443.64 433.41 442.38 435.2 441.67"/>
    <polygon class="cls-2" points="437.8 448.57 436.99 446.78 436.99 444.27 435.47 445.88 435.47 447.49 436.63 449.56 437.8 451.26 437.8 453.41 438.87 452.78 438.87 450 437.8 448.57"/>
    <polygon class="cls-2" points="440.94 451.89 443.81 452.34 443.81 453.77 441.38 454.94 439.32 456.1 439.32 454.67 440.94 451.89"/>
    <polygon class="cls-2" points="452.32 425.08 454.21 425.08 454.83 423.82 452.32 423.82 452.32 425.08"/>
    <polygon class="cls-2" points="587.48 378.47 588.33 379.13 588.75 379.98 588.12 380.78 587.1 380.78 586.54 379.88 586.92 378.8 587.48 378.47"/>
    <polygon class="cls-2" points="570.27 381.62 571.36 381.95 571.97 382.7 571.12 383.97 570.27 384.44 569.19 384.44 568.82 383.27 569.62 382 570.27 381.62"/>
    <polygon class="cls-2" points="556.64 377.67 555.18 376.22 554.24 376.45 554.67 377.48 555.65 378.24 556.64 378.24 556.64 377.67"/>
    <polygon class="cls-2" points="542.07 369.63 543.43 368.74 543.66 369.63 542.4 370.67 542.07 369.63"/>
    <polygon class="cls-2" points="554.71 361.69 556.22 362.16 556.41 363.38 555.56 364.46 554.24 364.27 553.82 363.07 553.82 361.97 554.71 361.69"/>
    <polygon class="cls-2" points="568.91 355.62 569.47 354.64 569.47 353.51 569.19 352.19 568.16 352.47 567.78 353.27 567.78 354.73 568.91 355.62"/>
    <polygon class="cls-2" points="582.64 365.64 583.86 366.39 583.86 367.66 582.64 368.46 581.51 368.74 580.95 367.75 580.95 366.62 581.51 365.64 582.64 365.64"/>
    <polygon class="cls-2" points="591.24 361.5 592.28 359.95 593.08 358.63 593.97 357.69 594.67 356.7 594.67 357.55 594.3 359.1 593.36 360.65 592.56 361.5 591.71 361.88 591.24 361.5"/>
    <polygon class="cls-2" points="584.8 355.62 587.1 353.55 588.89 351.91 589.88 351.58 590.16 352.76 588.89 354.35 588.19 356.14 587.2 356.7 587.48 357.83 585.84 359.29 584.8 358.59 584.38 357.08 584.8 355.62"/>
    <polygon class="cls-2" points="580.66 346.6 581.56 347.3 581.11 348.01 579.72 347.58 579.72 346.6 580.66 346.6"/>
    <polygon class="cls-2" points="571.87 348.01 572.25 348.57 571.4 348.57 571.87 348.01"/>
    <polygon class="cls-2" points="579.35 344.01 580.64 343.54 580.9 344.25 579.72 344.95 579.02 345.28 578.78 344.41 579.35 344.01"/>
    <polygon class="cls-2" points="564.02 339.17 564.96 338.18 566.28 339.17 566.8 340.25 566.37 341.19 565.01 341.19 564.02 340.44 564.02 339.17"/>
    <polygon class="cls-2" points="583.86 328.54 585.79 328.26 585.79 329.86 584.82 330.33 583.53 330.05 583.86 328.54"/>
    <polygon class="cls-2" points="602.06 325.44 603.28 323.89 603.84 324.66 602.95 326 601.49 326.47 602.06 325.44"/>
    <polygon class="cls-2" points="603.84 329.01 606.29 327.32 607.09 326.24 607.7 323.65 607.98 321.77 609.06 321.77 609.06 323.89 609.06 325.82 608.12 327.18 606.9 328.73 604.78 329.77 604.17 329.77 603.84 329.01"/>
    <polygon class="cls-2" points="602.67 340.25 602.9 337.15 603.32 336.44 604.17 337.43 604.17 339.4 604.17 342.08 603.42 343.78 602.85 345.28 602.24 345.89 601.49 344.76 602.06 342.46 602.67 340.25"/>
    <polygon class="cls-2" points="585.79 307.08 588.14 306.33 588.14 307.74 585.79 309.81 584.66 308.68 585.79 307.08"/>
    <polygon class="cls-2" points="619.34 310.84 619.34 312.25 617.93 310.84 619.34 310.84"/>
    <g>
      <path class="cls-3" d="M344.95,200.02c-1,.25-1.97.52-2.91.81-.94.29-1.86.72-2.74,1.3,1.08.46,2.09,1.03,3.03,1.74.94.7,1.76,1.51,2.45,2.42.69.91,1.24,1.92,1.64,3.04.4,1.12.61,2.33.61,3.66,0,2.11-.4,3.94-1.18,5.49-.79,1.55-1.83,2.84-3.12,3.87-1.29,1.03-2.73,1.81-4.33,2.32-1.6.52-3.2.77-4.82.77-.73,0-1.46-.09-2.19-.28-.73-.19-1.39-.46-1.99-.84-.6-.37-1.09-.84-1.47-1.4-.38-.56-.58-1.21-.58-1.95,0-.87.3-1.58.89-2.14.6-.56,1.34-.84,2.22-.84.96,0,1.75.33,2.37.99-.54.41-.95.93-1.24,1.55-.29.62-.43,1.28-.43,1.98,0,.58.14,1.04.43,1.4.29.35.7.53,1.24.53,1.08,0,2.07-.52,2.97-1.55.9-1.03,1.69-2.27,2.37-3.72.67-1.45,1.2-2.98,1.59-4.59.38-1.61.58-2.98.58-4.09,0-1.49-.29-2.82-.87-4-.58-1.18-1.33-2.12-2.25-2.82-2.42,2.15-4.45,4.49-6.09,7.04-1.64,2.54-3.14,5.14-4.5,7.78-1.37,2.65-2.7,5.27-4.01,7.87-1.31,2.6-2.87,5.06-4.67,7.38-1.81,2.31-3.96,4.41-6.46,6.29-2.5,1.88-5.63,3.42-9.4,4.62v.12c.81.12,1.71.24,2.71.34,1,.1,2.02.2,3.06.28,1.04.08,2.04.15,3,.19.96.04,1.79.06,2.48.06,2.81,0,5.57-.25,8.28-.74,2.71-.5,5.34-1.35,7.88-2.57,2.54-1.22,4.98-2.88,7.33-4.99,2.35-2.11,4.54-4.77,6.58-8l.52.31c-1.88,2.89-3.79,5.42-5.71,7.59-1.92,2.17-3.95,3.97-6.09,5.39-2.13,1.43-4.45,2.49-6.95,3.19-2.5.7-5.27,1.05-8.31,1.05-1.77,0-3.52-.07-5.25-.22-1.73-.15-3.33-.31-4.79-.5-1.46-.19-2.72-.36-3.78-.53-1.06-.16-1.8-.29-2.22-.37-1.46.33-2.95.6-4.47.81-1.52.21-3.2.31-5.05.31-2.08,0-3.7-.25-4.88-.74-1.17-.5-1.76-1.09-1.76-1.8,0-1.03.67-1.55,2.02-1.55.92,0,2,.08,3.23.25,1.23.17,2.48.36,3.75.59,1.27.23,2.49.46,3.66.71,1.17.25,2.18.43,3.03.56,1.54-.58,2.91-1.4,4.12-2.45s2.37-2.35,3.46-3.87c1.1-1.53,2.19-3.27,3.29-5.24,1.1-1.96,2.28-4.14,3.55-6.54,1.27-2.4,2.62-4.8,4.07-7.22,1.44-2.42,2.99-4.71,4.64-6.88,1.65-2.17,3.45-4.11,5.39-5.83,1.94-1.71,4.07-3.07,6.38-4.06-1.04-.54-2.3-.93-3.78-1.18-1.48-.25-2.9-.37-4.24-.37-3.31,0-6.62.58-9.92,1.74-3.31,1.16-6.29,2.77-8.94,4.84-2.65,2.07-4.81,4.54-6.46,7.41-1.65,2.87-2.48,6.04-2.48,9.52,0,.83.09,1.65.26,2.48.17.83.46,1.56.87,2.2.4.64.92,1.17,1.56,1.58.63.41,1.39.62,2.28.62,1.5,0,2.79-.43,3.87-1.3,1.08-.87,1.96-1.94,2.65-3.22.69-1.28,1.2-2.63,1.53-4.06.33-1.43.49-2.7.49-3.81,0-1.24-.07-2.26-.2-3.07-.14-.81-.3-1.56-.49-2.26l.63-.06c.15.66.32,1.4.49,2.2.17.81.26,1.87.26,3.19,0,1.61-.25,3.33-.75,5.15-.5,1.82-1.25,3.49-2.25,5.02-1,1.53-2.28,2.8-3.84,3.81-1.56,1.01-3.4,1.52-5.51,1.52-2.54,0-4.6-.82-6.17-2.45-1.58-1.63-2.37-3.81-2.37-6.54s.58-5.24,1.73-7.53c1.15-2.29,2.67-4.38,4.56-6.26,1.88-1.88,4.05-3.53,6.49-4.96,2.44-1.43,4.95-2.61,7.53-3.56,2.58-.95,5.12-1.67,7.64-2.17,2.52-.5,4.8-.74,6.84-.74,2.27,0,4.17.15,5.71.43,1.54.29,2.9.64,4.1,1.05.19-.08.54-.23,1.04-.43.5-.21,1.1-.41,1.79-.62.69-.21,1.44-.39,2.25-.56.81-.17,1.6-.25,2.37-.25l.17.37Z"/>
      <path class="cls-3" d="M374.83,229.96c-.15.17-.4.44-.75.84-.35.39-.78.79-1.3,1.18-.52.39-1.11.74-1.76,1.05-.65.31-1.37.46-2.13.46-1,0-1.9-.26-2.68-.77-.79-.52-1.51-1.21-2.16-2.08h-.12c0,2.15-.47,4.19-1.41,6.14-.94,1.94-2.19,3.65-3.75,5.11-1.56,1.47-3.34,2.62-5.34,3.47-2,.85-4.08,1.27-6.23,1.27-1.27,0-2.5-.15-3.69-.43-1.19-.29-2.25-.76-3.17-1.43-.92-.66-1.66-1.53-2.22-2.6-.56-1.07-.84-2.4-.84-3.97,0-2.36.52-4.48,1.56-6.39,1.04-1.9,2.37-3.52,4.01-4.87,1.63-1.34,3.48-2.37,5.54-3.07,2.06-.7,4.09-1.05,6.09-1.05,1.65,0,3.02.25,4.1.74,1.08.5,1.99,1.11,2.74,1.83.75.72,1.38,1.52,1.9,2.39.52.87,1.04,1.66,1.56,2.39.52.72,1.1,1.33,1.73,1.83s1.43.74,2.39.74c.88,0,1.8-.28,2.74-.84.94-.56,1.86-1.37,2.74-2.45l.46.5ZM355.39,223.58c-.92,0-1.86.34-2.8,1.02-.94.68-1.86,1.57-2.74,2.67-.89,1.1-1.71,2.33-2.48,3.72-.77,1.39-1.44,2.78-2.02,4.18-.58,1.41-1.03,2.77-1.36,4.09-.33,1.32-.49,2.48-.49,3.47s.2,1.72.61,2.29c.4.58.97.87,1.7.87.92,0,1.85-.34,2.8-1.02.94-.68,1.85-1.57,2.74-2.67.88-1.09,1.71-2.33,2.48-3.72.77-1.38,1.44-2.78,2.02-4.18.58-1.4,1.03-2.78,1.36-4.12.33-1.34.49-2.49.49-3.44s-.2-1.71-.61-2.29c-.4-.58-.97-.87-1.7-.87Z"/>
      <path class="cls-3" d="M363.81,245.89l11.65-22.07,8.31-.25-8.83,14.01.12.12c2.11-3.26,4.09-5.89,5.91-7.87,1.83-1.98,3.43-3.29,4.82-3.91.54-.7,1.02-1.26,1.44-1.67.42-.41.97-.74,1.64-.99.67-.25,1.58-.42,2.71-.53,1.13-.1,2.68-.2,4.64-.28-.46.5-.92,1.05-1.38,1.67s-.89,1.28-1.27,1.98c-.38.7-.7,1.43-.95,2.17-.25.74-.38,1.47-.38,2.17,0,.87.2,1.67.61,2.42.4.74,1.05,1.12,1.93,1.12.58,0,1.15-.13,1.73-.4.58-.27,1.13-.62,1.67-1.05s1.05-.92,1.53-1.46c.48-.54.91-1.05,1.3-1.55l.4.37c-.27.33-.65.82-1.15,1.46-.5.64-1.16,1.27-1.99,1.89-.83.62-1.85,1.17-3.06,1.64-1.21.48-2.66.71-4.36.71-.92,0-1.77-.16-2.54-.47-.77-.31-1.41-.71-1.93-1.21-.52-.5-.92-1.07-1.21-1.74-.29-.66-.43-1.36-.43-2.11,0-1.24.15-2.21.46-2.91v-.12c-1.15.66-2.42,1.76-3.78,3.29-1.37,1.53-2.69,3.21-3.98,5.05-1.29,1.84-2.46,3.68-3.52,5.52-1.06,1.84-1.86,3.38-2.39,4.62l-7.73.37Z"/>
      <path class="cls-3" d="M397.28,225.06l.4-.99h4.79l4.9-8.99,8.02-.31-5.19,9.3h7.9l-.46.99h-7.96c-.54.99-1.28,2.29-2.22,3.91-.94,1.61-1.88,3.29-2.8,5.02-.92,1.74-1.73,3.41-2.42,5.02s-1.04,2.94-1.04,3.97c0,.7.18,1.22.55,1.55.37.33.87.5,1.53.5,1,0,2.06-.3,3.17-.9,1.12-.6,2.24-1.37,3.38-2.32,1.13-.95,2.23-2.02,3.29-3.19,1.06-1.18,2.06-2.34,3-3.5.94-1.16,1.8-2.24,2.57-3.25.77-1.01,1.38-1.83,1.85-2.45l.46.25c-1.31,1.65-2.69,3.47-4.15,5.46s-3.04,3.83-4.73,5.55c-1.69,1.72-3.52,3.14-5.48,4.28-1.96,1.14-4.1,1.71-6.4,1.71-1.77,0-3.09-.51-3.95-1.52-.87-1.01-1.3-2.32-1.3-3.94,0-.83.11-1.64.32-2.45.21-.81.59-1.8,1.12-2.98.54-1.18,1.25-2.61,2.13-4.31.88-1.69,2.02-3.82,3.4-6.39h-4.67Z"/>
      <path class="cls-3" d="M421.28,224.07c1.23-2.44,2.63-4.93,4.21-7.47,1.58-2.54,3.37-4.83,5.37-6.88s4.23-3.72,6.69-5.02,5.17-1.95,8.14-1.95c2.27,0,4.14.48,5.62,1.43,1.48.95,2.22,2.52,2.22,4.71,0,.91-.19,1.7-.58,2.39-.38.68-.89,1.25-1.5,1.7-.62.46-1.3.81-2.05,1.05-.75.25-1.49.37-2.22.37-.42,0-.89-.04-1.38-.12-.5-.08-.94-.25-1.33-.5.88-.99,1.58-1.99,2.08-3.01.5-1.01.75-2.06.75-3.13,0-.99-.21-1.89-.63-2.7-.42-.81-1.17-1.21-2.25-1.21s-2.24.52-3.49,1.55c-1.25,1.03-2.56,2.46-3.92,4.28-1.37,1.82-2.76,3.97-4.18,6.45-1.42,2.48-2.87,5.17-4.33,8.06h13.85l-.52.99h-13.79c-1.35,2.81-2.74,5.79-4.18,8.93-1.44,3.14-2.98,6.22-4.62,9.24-1.64,3.02-3.41,5.9-5.34,8.65-1.92,2.75-4.09,5.17-6.49,7.25-2.4,2.09-5.06,3.75-7.96,4.99-2.9,1.24-6.16,1.86-9.78,1.86-1.19,0-2.42-.19-3.69-.56-1.27-.37-2.43-.93-3.49-1.67-1.06-.74-1.92-1.68-2.6-2.82-.67-1.14-1.01-2.45-1.01-3.94,0-1.65.33-3.03.98-4.12.65-1.1,1.5-1.96,2.54-2.6,1.04-.64,2.19-1.1,3.46-1.36,1.27-.27,2.52-.4,3.75-.4.69,0,1.28.06,1.76.19.48.12.93.23,1.36.31v.5c-2.08,0-3.75.66-5.02,1.98-1.27,1.32-1.9,3.1-1.9,5.33,0,1.07.13,2.11.4,3.1.27.99.67,1.86,1.21,2.6.54.74,1.21,1.34,2.02,1.8.81.45,1.75.68,2.83.68,2.04,0,3.97-.65,5.8-1.95,1.83-1.3,3.56-3.02,5.19-5.15,1.63-2.13,3.2-4.59,4.7-7.38,1.5-2.79,2.97-5.66,4.41-8.62,1.44-2.95,2.86-5.89,4.24-8.8,1.38-2.91,2.79-5.59,4.21-8.03h-4.79l.46-.99h4.79Z"/>
      <path class="cls-3" d="M467.78,229.96c-.15.17-.4.44-.75.84-.35.39-.78.79-1.3,1.18-.52.39-1.11.74-1.76,1.05-.65.31-1.37.46-2.13.46-1,0-1.9-.26-2.68-.77-.79-.52-1.51-1.21-2.16-2.08h-.12c0,2.15-.47,4.19-1.41,6.14-.94,1.94-2.19,3.65-3.75,5.11-1.56,1.47-3.34,2.62-5.34,3.47s-4.08,1.27-6.23,1.27c-1.27,0-2.5-.15-3.69-.43-1.19-.29-2.25-.76-3.17-1.43-.92-.66-1.66-1.53-2.22-2.6-.56-1.07-.84-2.4-.84-3.97,0-2.36.52-4.48,1.56-6.39,1.04-1.9,2.38-3.52,4.01-4.87,1.63-1.34,3.48-2.37,5.54-3.07,2.06-.7,4.09-1.05,6.09-1.05,1.65,0,3.02.25,4.1.74,1.08.5,1.99,1.11,2.74,1.83.75.72,1.38,1.52,1.9,2.39.52.87,1.04,1.66,1.56,2.39.52.72,1.1,1.33,1.73,1.83s1.43.74,2.39.74c.88,0,1.8-.28,2.74-.84.94-.56,1.86-1.37,2.74-2.45l.46.5ZM448.34,223.58c-.92,0-1.86.34-2.8,1.02-.94.68-1.86,1.57-2.74,2.67-.89,1.1-1.71,2.33-2.48,3.72-.77,1.39-1.44,2.78-2.02,4.18-.58,1.41-1.03,2.77-1.36,4.09-.33,1.32-.49,2.48-.49,3.47s.2,1.72.61,2.29c.4.58.97.87,1.7.87.92,0,1.86-.34,2.8-1.02.94-.68,1.86-1.57,2.74-2.67.88-1.09,1.71-2.33,2.48-3.72.77-1.38,1.44-2.78,2.02-4.18.58-1.4,1.03-2.78,1.36-4.12.33-1.34.49-2.49.49-3.44s-.2-1.71-.61-2.29c-.4-.58-.97-.87-1.7-.87Z"/>
      <path class="cls-3" d="M488.55,202.13c-3.85,6.86-7.14,12.67-9.87,17.42-2.73,4.75-4.97,8.73-6.72,11.93-1.75,3.2-3.04,5.74-3.87,7.62-.83,1.88-1.24,3.38-1.24,4.49,0,.46.12.81.38,1.05.25.25.53.37.84.37.88,0,2-.53,3.35-1.58,1.35-1.05,2.74-2.37,4.18-3.94,1.44-1.57,2.84-3.25,4.18-5.05,1.35-1.8,2.46-3.44,3.35-4.93l.46.25c-.27.41-.71,1.12-1.33,2.11s-1.38,2.12-2.31,3.38c-.92,1.26-1.95,2.55-3.09,3.87-1.13,1.32-2.33,2.54-3.58,3.66s-2.54,2.04-3.87,2.76-2.64,1.08-3.95,1.08c-1.62,0-2.83-.43-3.63-1.3-.81-.87-1.21-1.96-1.21-3.29,0-.91.14-1.87.4-2.88.27-1.01.7-2.21,1.3-3.6.6-1.38,1.38-3.02,2.37-4.9.98-1.88,2.19-4.12,3.63-6.73,1.44-2.6,3.13-5.64,5.08-9.11,1.94-3.47,4.16-7.5,6.66-12.09l8.48-.62Z"/>
      <path class="cls-3" d="M492.99,223.58c-1.23,2.11-2.44,4.15-3.63,6.14-1.19,1.98-2.25,3.83-3.17,5.55-.92,1.72-1.67,3.23-2.22,4.56-.56,1.32-.84,2.38-.84,3.16,0,.58.1,1.06.29,1.46.19.39.54.59,1.04.59.77,0,1.61-.3,2.51-.9.9-.6,1.84-1.36,2.8-2.29.96-.93,1.92-1.98,2.88-3.16.96-1.18,1.87-2.33,2.71-3.47.85-1.14,1.61-2.21,2.28-3.22.67-1.01,1.22-1.83,1.64-2.45l.46.19c-.92,1.41-2.08,3.11-3.46,5.11-1.38,2-2.94,3.96-4.67,5.86-1.77,1.94-3.4,3.42-4.9,4.43s-3.17,1.52-5.02,1.52c-1.58,0-2.77-.49-3.58-1.46s-1.21-2.32-1.21-4.06c0-1.86.74-4.18,2.22-6.97s3.36-6.23,5.63-10.32l8.25-.25ZM490.05,213.91c0-1.2.39-2.22,1.18-3.07.79-.85,1.74-1.27,2.86-1.27s2.07.42,2.86,1.27c.79.85,1.18,1.87,1.18,3.07s-.39,2.22-1.18,3.07c-.79.85-1.74,1.27-2.86,1.27s-2.07-.42-2.86-1.27c-.79-.85-1.18-1.87-1.18-3.07Z"/>
      <path class="cls-3" d="M530.84,229.96c-.15.17-.4.44-.75.84-.35.39-.78.79-1.3,1.18-.52.39-1.11.74-1.76,1.05-.65.31-1.37.46-2.13.46-1,0-1.9-.26-2.68-.77-.79-.52-1.51-1.21-2.16-2.08h-.12c0,2.15-.47,4.19-1.41,6.14-.94,1.94-2.19,3.65-3.75,5.11-1.56,1.47-3.34,2.62-5.34,3.47s-4.08,1.27-6.23,1.27c-1.27,0-2.5-.15-3.69-.43-1.19-.29-2.25-.76-3.17-1.43-.92-.66-1.66-1.53-2.22-2.6-.56-1.07-.84-2.4-.84-3.97,0-2.36.52-4.48,1.56-6.39,1.04-1.9,2.38-3.52,4.01-4.87,1.63-1.34,3.48-2.37,5.54-3.07,2.06-.7,4.09-1.05,6.09-1.05,1.65,0,3.02.25,4.1.74,1.08.5,1.99,1.11,2.74,1.83.75.72,1.38,1.52,1.9,2.39.52.87,1.04,1.66,1.56,2.39.52.72,1.1,1.33,1.73,1.83s1.43.74,2.39.74c.88,0,1.8-.28,2.74-.84.94-.56,1.86-1.37,2.74-2.45l.46.5ZM511.4,223.58c-.92,0-1.86.34-2.8,1.02-.94.68-1.86,1.57-2.74,2.67-.89,1.1-1.71,2.33-2.48,3.72-.77,1.39-1.44,2.78-2.02,4.18-.58,1.41-1.03,2.77-1.36,4.09-.33,1.32-.49,2.48-.49,3.47s.2,1.72.61,2.29c.4.58.97.87,1.7.87.92,0,1.86-.34,2.8-1.02.94-.68,1.86-1.57,2.74-2.67.88-1.09,1.71-2.33,2.48-3.72.77-1.38,1.44-2.78,2.02-4.18.58-1.4,1.03-2.78,1.36-4.12.33-1.34.49-2.49.49-3.44s-.2-1.71-.61-2.29c-.4-.58-.97-.87-1.7-.87Z"/>
    </g>
    <g>
      <path class="cls-3" d="M349.07,291.04l5.79-13.15h4.88v.54h-.59c-.78,0-1.29.06-1.54.19s-.4.37-.49.72-.12,1.19-.12,2.51v7.79c0,1.25.03,2.07.09,2.46s.22.67.47.86.74.28,1.46.28h.7v.54h-7.59v-.54h.56c.67,0,1.14-.09,1.4-.26s.43-.44.5-.8.11-1.21.11-2.54v-10.11l-6.29,14.25h-.55l-6.34-14.25v9.3c0,1.27.04,2.14.12,2.6s.32.87.73,1.21.98.54,1.71.59v.54h-5.68v-.54c.68-.04,1.23-.22,1.66-.56s.69-.74.78-1.22.14-1.38.14-2.7v-6.91c0-1.27-.04-2.08-.11-2.45s-.23-.62-.47-.76-.76-.21-1.56-.21h-.43v-.54h4.84l5.82,13.15Z"/>
      <path class="cls-3" d="M369.77,287.44h-6.69c-.03.46-.05.8-.05,1.03,0,1.69.26,2.96.79,3.8s1.31,1.27,2.36,1.27c1.42,0,2.43-.64,3.02-1.91h.56c-.25.8-.75,1.42-1.49,1.87s-1.55.67-2.43.67c-.81,0-1.58-.21-2.3-.62s-1.31-.99-1.78-1.74-.69-1.66-.69-2.73c0-1.52.45-2.78,1.34-3.78s2-1.51,3.34-1.51c1.26,0,2.23.38,2.92,1.15s1.05,1.59,1.09,2.48ZM367.72,286.97c.02-.18.04-.34.04-.48,0-.69-.2-1.22-.6-1.6s-.9-.57-1.48-.57c-1.42,0-2.27.88-2.54,2.65h4.59Z"/>
      <path class="cls-3" d="M374.37,277.67v12.82c0,1.02.01,1.67.04,1.93s.14.47.33.61.54.21,1.04.21h.28v.54h-5.13v-.54h.33c.47,0,.8-.06,1-.19s.32-.31.36-.54.06-.91.06-2.02v-9.49c0-1.01-.09-1.64-.27-1.9s-.62-.39-1.31-.39v-.54c.48,0,1.04-.05,1.68-.16s1.09-.22,1.33-.33h.26Z"/>
      <path class="cls-3" d="M387.01,292.03h.43c-.07,1.34-.73,2-1.97,2-.53,0-.95-.14-1.26-.42s-.51-.7-.6-1.25c-.78.55-1.49.97-2.14,1.25s-1.22.42-1.73.42c-.65,0-1.21-.19-1.68-.56s-.7-.87-.7-1.49c0-.8.39-1.51,1.18-2.11s1.87-1.19,3.25-1.76l1.82-.74v-.47c0-.66-.04-1.14-.13-1.44s-.31-.56-.67-.8-.83-.35-1.42-.35c-1.17,0-1.82.39-1.96,1.17-.12.8-.45,1.2-.98,1.2-.48,0-.71-.23-.71-.68s.32-.92.95-1.44,1.62-.77,2.95-.77c.99,0,1.76.16,2.31.47s.91.67,1.08,1.07.26,1.01.26,1.83v3.88c0,.91.05,1.49.14,1.75s.3.39.61.39c.52,0,.84-.38.96-1.15ZM383.61,287.93l-1.28.52c-2.02.82-3.02,1.85-3.02,3.09,0,.49.13.89.39,1.19s.59.45,1.01.45c.37,0,.79-.12,1.28-.36s1.03-.61,1.63-1.09v-3.8Z"/>
      <path class="cls-3" d="M391,283.8h.32c.18.48.28,1.14.3,1.98.56-.66,1.15-1.16,1.77-1.49s1.26-.49,1.93-.49c.77,0,1.39.16,1.88.48s.8.71.94,1.18.21,1.14.21,2.03v3c0,1.11.02,1.79.06,2.03s.16.42.37.54.59.18,1.14.18v.54h-4.91v-.54h.22c.56,0,.93-.08,1.1-.25s.27-.36.29-.57.04-.86.04-1.93v-3.09c0-.76-.04-1.3-.11-1.62s-.27-.61-.6-.86-.74-.38-1.24-.38c-.57,0-1.12.17-1.63.51s-1.01.85-1.47,1.53v3.91c0,1.11.02,1.79.06,2.03s.17.42.38.54.59.18,1.15.18v.54h-4.85v-.54c.54,0,.91-.05,1.12-.16s.34-.28.39-.5.08-.92.08-2.09v-2.86c0-1.12-.02-1.79-.06-2.03s-.17-.42-.38-.54-.59-.18-1.15-.18v-.54c.86-.09,1.74-.27,2.64-.54Z"/>
      <path class="cls-3" d="M404.31,283.8v6.69c0,1.02.02,1.67.05,1.93s.14.47.34.61.54.21,1.04.21h.25v.54h-5.17v-.54h.4c.55,0,.92-.08,1.08-.24s.27-.35.29-.57.04-.87.04-1.94v-2.91c0-1.12-.05-1.81-.16-2.06s-.25-.41-.42-.47-.48-.09-.92-.09h-.32v-.54c1.39-.14,2.47-.35,3.23-.62h.26ZM402.05,278.9c0-.34.12-.62.36-.87s.53-.36.86-.36.62.12.86.36.35.53.35.87-.12.64-.35.88-.52.36-.86.36-.62-.12-.86-.36-.36-.54-.36-.88Z"/>
      <path class="cls-3" d="M416.03,287.44h-6.69c-.03.46-.05.8-.05,1.03,0,1.69.26,2.96.79,3.8s1.31,1.27,2.36,1.27c1.42,0,2.43-.64,3.02-1.91h.56c-.25.8-.75,1.42-1.49,1.87s-1.55.67-2.43.67c-.81,0-1.58-.21-2.3-.62s-1.31-.99-1.78-1.74-.69-1.66-.69-2.73c0-1.52.45-2.78,1.34-3.78s2-1.51,3.34-1.51c1.26,0,2.23.38,2.92,1.15s1.05,1.59,1.09,2.48ZM413.98,286.97c.02-.18.04-.34.04-.48,0-.69-.2-1.22-.6-1.6s-.9-.57-1.48-.57c-1.42,0-2.27.88-2.54,2.65h4.59Z"/>
      <path class="cls-3" d="M424.32,293.62v-5.11h.59c.66,3.33,2.24,4.99,4.72,4.99,1.12,0,1.98-.32,2.6-.96s.92-1.35.92-2.14-.27-1.46-.81-2c-.54-.53-1.52-1.1-2.95-1.71-1.27-.55-2.23-1.03-2.88-1.44s-1.15-.94-1.52-1.6-.54-1.36-.54-2.1c0-1.13.39-2.08,1.18-2.83s1.78-1.13,2.98-1.13c.67,0,1.3.11,1.9.33s1.2.67,1.83,1.36c.36-.43.56-.89.61-1.39h.52v4.16h-.52c-.3-1.21-.82-2.16-1.58-2.86s-1.63-1.04-2.62-1.04-1.64.26-2.08.77-.66,1.07-.66,1.68c0,.73.28,1.36.83,1.86.55.52,1.54,1.09,2.96,1.73,1.37.61,2.36,1.1,2.98,1.47s1.12.88,1.49,1.54.56,1.41.56,2.27c0,1.36-.45,2.46-1.36,3.32s-2.12,1.28-3.63,1.28c-1.74,0-3.2-.67-4.36-2-.26.37-.45.88-.57,1.55h-.59Z"/>
      <path class="cls-3" d="M438.28,292.73c-.97-.96-1.45-2.21-1.45-3.76,0-1.46.49-2.69,1.48-3.68s2.2-1.49,3.63-1.49c1.17,0,2.22.35,3.14,1.04l1.17-1.36.36.3-1.17,1.36c1.08,1.02,1.62,2.29,1.62,3.82,0,1.62-.5,2.89-1.5,3.81s-2.21,1.39-3.62,1.39c-1.23,0-2.33-.38-3.29-1.12l-1.23,1.43-.38-.32,1.24-1.43ZM439.14,291.74l5.29-6.14c-.49-.84-1.32-1.25-2.48-1.25-1.02,0-1.81.36-2.35,1.07s-.81,1.92-.81,3.62c0,1.16.12,2.06.36,2.71ZM444.66,286.06l-5.31,6.16c.54.94,1.4,1.41,2.59,1.41,1.04,0,1.83-.35,2.36-1.05s.8-1.88.8-3.56c0-1.2-.15-2.19-.45-2.96Z"/>
      <path class="cls-3" d="M450.25,294.17h-.46v-12.84c0-.94-.03-1.54-.08-1.82s-.18-.48-.39-.61-.57-.2-1.08-.2v-.54c.46,0,1.02-.05,1.66-.16s1.09-.22,1.32-.33h.25v7.59c.55-.49,1.1-.86,1.66-1.1s1.13-.36,1.71-.36c1.38,0,2.52.48,3.4,1.44s1.32,2.19,1.32,3.68-.45,2.75-1.36,3.75-2.08,1.5-3.53,1.5c-.71,0-1.33-.15-1.87-.45s-.98-.74-1.34-1.32c-.51.51-.92,1.1-1.23,1.77ZM451.48,285.96v3.76c0,.97.06,1.67.19,2.09s.44.83.93,1.22,1.07.59,1.72.59c1.01,0,1.81-.41,2.41-1.24s.9-2.02.9-3.57c0-1.43-.28-2.52-.84-3.26s-1.3-1.12-2.23-1.12c-.53,0-1.05.13-1.56.38s-1.02.64-1.52,1.15Z"/>
      <path class="cls-3" d="M466,291.97l2.23-5.33c.32-.78.48-1.21.48-1.3,0-.39-.43-.59-1.3-.61v-.54h3.38v.54c-.52.02-.91.16-1.15.42s-.54.81-.9,1.68l-4.28,10.32c-.41.98-.77,1.65-1.08,2.01s-.66.53-1.03.53c-.51,0-.76-.23-.76-.69,0-.53.41-.98,1.22-1.35.48-.21.79-.39.96-.54s.32-.42.47-.81l.91-2.29-3.61-7.73c-.32-.68-.59-1.11-.8-1.29s-.57-.27-1.08-.27v-.54h4.41v.54c-.77.02-1.16.18-1.16.48,0,.12.15.5.46,1.15l2.64,5.61Z"/>
    </g>
    <polygon class="cls-1" points="502.61 57.66 493.62 53.16 480.7 49.79 478.08 46.61 472.47 40.24 465.73 36.88 460.49 33.51 456.55 31.07 449.63 29.76 439.71 28.64 430.53 28.64 422.67 28.64 414.81 29.39 406.57 30.88 399.61 32.57 392.16 33.88 385.6 35.56 378.86 37.44 369.69 40.62 375.87 39.87 384.67 38.93 392.53 37.62 400.39 37.06 408.44 37.06 418.93 36.69 430.16 37.44 440.83 39.5 451.5 42.12 459.55 44.18 467.79 46.8 475.09 49.23 479.96 51.48 485.01 52.41 491.56 54.47 502.61 57.66"/>
  </g>
</svg>